#!OML:ASF F:\twosubjects\two\wednesday\Session 1\rory1.ASF
:FULLY-SPECIFIED
:DEGREES
121
root 8.89779 18.804 9.70124 -174.911 0.834337 178.977
lowerback -0.933968 1.25474 -3.3661
upperback -0.0600637 1.76619 -1.5873
thorax 0.411615 0.89923 0.280727
lowerneck -10.9039 -5.88601 -7.7495
upperneck 15.1976 -9.10093 10.793
head 7.30201 -4.14847 3.85752
rclavicle -3.18055e-015 -1.63003e-014
rhumerus -6.04656 -7.26108 -33.6157
rradius 123.204
rwrist 6.83477
rhand -27.2733 45.11
rfingers 7.12502
rthumb -0.684029 15.1313
lclavicle -3.18055e-015 -1.63003e-014
lhumerus 1.15287 5.57222 35.1845
lradius 126.91
lwrist -4.829
lhand -20.6332 16.8008
lfingers 7.12502
lthumb 5.72845 46.7033
rfemur -4.59413 11.4333 14.7222
rtibia 16.0253
rfoot -9.35047 -14.9255
rtoes 3.54668
lfemur -4.7313 -6.50241 -16.29
ltibia 14.7094
lfoot -12.8976 8.3401
ltoes -13.7898
122
root 8.89796 18.8046 9.69938 -174.964 0.814561 179.003
lowerback -0.898044 1.26191 -3.28759
upperback -0.0561051 1.77362 -1.60751
thorax 0.398306 0.903312 0.215484
lowerneck -11.0589 -6.03915 -7.92833
upperneck 15.5014 -9.37107 11.0029
head 7.47433 -4.26957 3.92091
rclavicle -3.8266e-015 -4.37326e-015
rhumerus -6.1487 -7.28919 -33.5118
rradius 123.041
rwrist 6.51056
rhand -28.4405 45.997
rfingers 7.12502
rthumb -1.81139 16.025
lclavicle -3.8266e-015 -4.37326e-015
lhumerus 1.20823 5.40214 35.1328
lradius 126.672
lwrist -4.84168
lhand -20.9327 16.5786
lfingers 7.12502
lthumb 5.43929 46.4888
rfemur -4.53213 11.3883 14.7639
rtibia 16.0252
rfoot -9.50779 -14.8656
rtoes 3.01347
lfemur -4.67989 -6.48084 -16.2669
ltibia 14.7311
lfoot -12.8875 8.31892
ltoes -13.7927
123
root 8.89781 18.8047 9.69614 -174.987 0.733979 178.98
lowerback -0.899423 1.24308 -3.24308
upperback -0.0495456 1.74973 -1.64225
thorax 0.408894 0.891821 0.155016
lowerneck -10.9297 -6.17301 -8.23681
upperneck 15.4425 -9.60638 11.4287
head 7.49373 -4.37828 4.08749
rclavicle 5.46658e-015 7.15625e-015
rhumerus -6.14638 -7.48105 -33.5229
rradius 122.87
rwrist 5.85966
rhand -28.936 46.982
rfingers 7.12502
rthumb -2.2899 17.0145
lclavicle 5.46658e-015 7.15625e-015
lhumerus 1.28947 5.24995 35.0674
lradius 126.612
lwrist -3.71789
lhand -20.4383 16.8697
lfingers 7.12502
lthumb 5.91665 46.7671
rfemur -4.43479 11.3929 14.7568
rtibia 15.9437
rfoot -9.60382 -14.9356
rtoes 3.64716
lfemur -4.71575 -6.62588 -16.2854
ltibia 14.8487
lfoot -12.99 8.35206
ltoes -15.6346
124
root 8.90168 18.8047 9.69485 -175.027 0.748701 179.027
lowerback -0.832043 1.2543 -3.17136
upperback -0.0595441 1.76111 -1.66795
thorax 0.363521 0.898483 0.0869499
lowerneck -10.8541 -6.2358 -8.36682
upperneck 15.3568 -9.73811 11.7296
head 7.4891 -4.43422 4.1943
rclavicle 2.68359e-015 3.97569e-014
rhumerus -6.12181 -7.59268 -33.584
rradius 122.74
rwrist 5.05358
rhand -29.0885 47.9044
rfingers 7.12502
rthumb -2.43721 17.9386
lclavicle 2.68359e-015 3.97569e-014
lhumerus 1.34422 5.10081 34.8483
lradius 126.492
lwrist -2.42736
lhand -20.6555 16.9306
lfingers 7.12502
lthumb 5.70693 46.8337
rfemur -4.31576 11.5245 14.8313
rtibia 15.8109
rfoot -9.49927 -15.0318
rtoes 4.5909
lfemur -4.75335 -6.66076 -16.2293
ltibia 15.0235
lfoot -13.0609 8.29849
ltoes -16.2795
125
root 8.90679 18.8051 9.69948 -175.165 0.591119 179.161
lowerback -0.577346 1.20866 -3.02661
upperback -0.0609907 1.68537 -1.65092
thorax 0.22468 0.861571 0.0166502
lowerneck -10.755 -6.24836 -8.38776
upperneck 15.2152 -9.78433 11.914
head 7.44159 -4.452 4.25522
rclavicle 4.37326e-015 -6.36111e-015
rhumerus -6.22107 -7.46958 -33.4988
rradius 122.662
rwrist 4.33964
rhand -29.2776 48.6411
rfingers 7.12502
rthumb -2.61981 18.6774
lclavicle 4.37326e-015 -6.36111e-015
lhumerus 1.33366 4.88557 34.5435
lradius 126.288
lwrist -1.4629
lhand -21.3235 16.6397
lfingers 7.12502
lthumb 5.06204 46.5592
rfemur -4.091 11.4689 15.0494
rtibia 15.7255
rfoot -9.43233 -15.1288
rtoes 4.76031
lfemur -4.72451 -6.66378 -16.0633
ltibia 15.1715
lfoot -13.0622 8.15508
ltoes -14.672
126
root 8.91038 18.8045 9.70449 -175.37 0.293118 179.219
lowerback -0.318939 1.13783 -2.98911
upperback 0.0184144 1.57923 -1.59971
thorax 0.163079 0.807629 0.0426757
lowerneck -10.6106 -6.34127 -8.51824
upperneck 15.0333 -9.9254 12.1313
head 7.3911 -4.52005 4.33496
rclavicle -2.23633e-015 1.07344e-014
rhumerus -6.2465 -7.43086 -33.378
rradius 122.556
rwrist 4.23762
rhand -29.3467 48.7791
rfingers 7.12502
rthumb -2.68653 18.8163
lclavicle -2.23633e-015 1.07344e-014
lhumerus 1.33806 4.54785 34.3785
lradius 126.007
lwrist -0.869642
lhand -22.418 15.9423
lfingers 7.12502
lthumb 4.00511 45.8844
rfemur -3.7683 11.3407 15.2172
rtibia 15.6523
rfoot -9.35904 -15.2878
rtoes 4.51405
lfemur -4.65475 -6.81931 -15.9791
ltibia 15.3251
lfoot -13.1207 8.05063
ltoes -13.4142
127
root 8.91081 18.802 9.69583 -175.292 0.433258 179.251
lowerback -0.554796 1.20099 -2.96468
upperback 0.0843277 1.67394 -1.57126
thorax 0.360494 0.851621 0.0651689
lowerneck -10.7902 -6.51396 -8.63504
upperneck 15.1954 -10.1758 12.2074
head 7.51444 -4.63248 4.34472
rclavicle -6.70898e-015 -1.98785e-015
rhumerus -6.29409 -7.43534 -33.1771
rradius 122.621
rwrist 4.94427
rhand -29.9143 48.3203
rfingers 7.12502
rthumb -3.23474 18.3651
lclavicle -6.70898e-015 -1.98785e-015
lhumerus 1.34563 4.26469 34.2894
lradius 125.777
lwrist -0.845835
lhand -23.5318 15.4818
lfingers 7.12502
lthumb 2.92954 45.4415
rfemur -3.8282 11.4544 15.2238
rtibia 15.5908
rfoot -9.25722 -15.2344
rtoes 4.44979
lfemur -4.75303 -6.69537 -15.9559
ltibia 15.4627
lfoot -13.3105 8.02639
ltoes -13.0867
